# xmcd
#
# Track frame offsets:
#	150
#	11248
#	26572
#	55072
#	65763
#	79768
#	93806
#	101262
#	114952
#	130138
#	139245
#	167433
#	188542
#	197786
#	207357
#	235980
#	246585
#	275310
#	298815
#	319983
#
# Disc length: 4637 seconds
#
# Revision: 1
# Processed by: cddbd v1.5.1PL0 Copyright (c) Steve Scherf et al.
# Submitted via: audiograbber 1.83.01
#
DISCID=1f121b14
DTITLE=Karsten Alnæs - Historien om Norge CD2
DYEAR=2004
DGENRE=Lydbok
TTITLE0=Norge Ett rike (800-1389) - Kong Sverre 1-5
TTITLE1=Norge Ett rike (800-1389) - Kong Sverre 2-5
TTITLE2=Norge Ett rike (800-1389) - Kong Sverre 3-5
TTITLE3=Norge Ett rike (800-1389) - Kong Sverre 4-5
TTITLE4=Norge Ett rike (800-1389) - Kong Sverre 5-5
TTITLE5=Norge Ett rike (800-1389) - Et kastiljansk ekteskap 1-5
TTITLE6=Norge Ett rike (800-1389) - Et kastiljansk ekteskap 2-5
TTITLE7=Norge Ett rike (800-1389) - Et kastiljansk ekteskap 3-5
TTITLE8=Norge Ett rike (800-1389) - Et kastiljansk ekteskap 4-5
TTITLE9=Norge Ett rike (800-1389) - Et kastiljansk ekteskap 5-5
TTITLE10=Norge Ett rike (800-1389) - Kong Håkons siste ferd 1-3
TTITLE11=Norge Ett rike (800-1389) - Kong Håkons siste ferd 2-3
TTITLE12=Norge Ett rike (800-1389) - Kong Håkons siste ferd 3-3
TTITLE13=Under fremmed styre (1389 - 1814) - Det kom et skip til Bergen 1-4
TTITLE14=Under fremmed styre (1389 - 1814) - Det kom et skip til Bergen 2-4
TTITLE15=Under fremmed styre (1389 - 1814) - Det kom et skip til Bergen 3-4
TTITLE16=Under fremmed styre (1389 - 1814) - Det kom et skip til Bergen 4-4
TTITLE17=Under fremmed styre (1389 - 1814) - Margrete, Norden dronning 1-2
TTITLE18=Under fremmed styre (1389 - 1814) - Margrete, Norden dronning 2-2
TTITLE19=Under fremmed styre (1389 - 1814) - Opprøret i Seljord 1-2
EXTD=
EXTT0=
EXTT1=
EXTT2=
EXTT3=
EXTT4=
EXTT5=
EXTT6=
EXTT7=
EXTT8=
EXTT9=
EXTT10=
EXTT11=
EXTT12=
EXTT13=
EXTT14=
EXTT15=
EXTT16=
EXTT17=
EXTT18=
EXTT19=
PLAYORDER=
